<?xml version="1.0" encoding="utf-8"?>
<!DOCTYPE svg PUBLIC "-//W3C//DTD SVG 20010904//EN" "http://www.w3.org/TR/2001/REC-SVG-20010904/DTD/svg10.dtd">
<svg version="1.0" xmlns="http://www.w3.org/2000/svg" viewBox="0 0 816 331" preserveAspectRatio="xMidYMid meet">
 <g fill="#5a8a1c">
  <path d="M15.75 330.50 c-0.55 -0.20 -2 -0.70 -3.25 -1.05 -3.60 -1 -6.65 -2.70 -8.90 -4.95 -2.90 -2.95 -3.60 -4.55 -3.60 -8.60 0 -7.40 4.65 -12.45 12.20 -13.20 1.70 -0.15 6.40 0.05 10.55 0.50 12.35 1.30 20.10 -0.15 27.80 -5.30 7.55 -5 13.60 -14.10 17.70 -26.65 1 -3.15 2.95 -11.40 3.85 -16.25 1.60 -9.25 2.20 -15.90 3.90 -43.75 0.45 -7.50 0.80 -13.50 2 -33 0.30 -4.40 0.75 -11.60 1 -16 0.25 -4.40 0.70 -11.60 1 -16 1.20 -19.50 1.55 -25.50 2 -33 0.25 -4.40 0.70 -11.70 1 -16.25 0.50 -7.75 0.80 -12.65 2 -32.60 0.45 -7.70 0.95 -15.45 2 -32.65 1.30 -21.30 1.35 -21.05 -1.30 -24.60 -1.85 -2.50 -3.80 -3.20 -9.85 -3.50 -5.90 -0.35 -7.30 -0.90 -6.35 -2.70 l0.55 -0.95 102.95 0 102.95 0 0.30 1 c0.65 2.05 -0.35 2.35 -8.40 2.60 -8.45 0.25 -9.90 0.65 -11.95 3.50 l-1.15 1.65 -0.15 156.65 c-0.05 108 0.05 156.95 0.40 157.65 l0.55 0.95 9.75 0 c5.80 0 10.15 0.20 10.75 0.50 0.60 0.35 0.95 1.05 0.95 2 0 0.95 -0.35 1.65 -0.95 2 -0.65 0.30 -12.35 0.50 -34.50 0.50 l-33.50 0 -0.75 -0.80 c-1.05 -1.05 -1 -2.35 0.10 -3.35 0.80 -0.70 2.20 -0.85 9.45 -0.85 l8.50 0 0.80 -0.90 0.85 -0.95 0 -155.95 -0.05 -155.95 -0.85 -1.70 c-0.45 -0.95 -1.70 -2.40 -2.75 -3.25 l-1.95 -1.55 -61.05 0 -61.10 0 -1.85 0.90 c-4 1.90 -5.15 5.25 -5.65 16.35 -0.15 3.45 -0.45 9.75 -0.75 14 -0.45 7.80 -1.05 17.35 -2 32.90 -0.30 4.60 -0.75 11.95 -1 16.35 -0.30 4.40 -0.75 11.60 -1 16 -0.25 4.40 -0.70 11.70 -1 16.25 -0.30 4.55 -0.75 11.85 -1 16.25 -0.45 7.50 -0.80 13.50 -2 33 -0.30 4.40 -0.75 11.60 -1 16 -0.25 4.40 -0.70 11.70 -1 16.25 -0.30 4.55 -0.75 11.85 -1 16.25 -1.25 20.80 -1.70 26.70 -2.95 37.50 -0.65 5.55 -0.80 6.40 -2.55 16 -2.25 12.50 -7.10 27.60 -11.45 35.75 -4.15 7.75 -6.55 11.10 -11.55 16 -6.05 5.95 -9.80 8.05 -19.80 11.05 -1.90 0.55 -14.55 0.55 -15.95 -0.05z"/>
  <path d="M336 330.40 c-0.95 -0.25 -2.65 -0.70 -3.75 -1 -12.45 -3.25 -22.20 -11.30 -27.95 -23.10 -3.15 -6.45 -3.90 -8.95 -5.80 -18.70 -0.65 -3.45 -0.65 -20.45 0 -23.50 0.30 -1.30 0.75 -3.45 1.05 -4.85 1.25 -5.90 3.90 -12.05 7.40 -17.20 2 -2.85 8.10 -9.05 10.80 -10.90 7.85 -5.35 17.60 -8.15 28.25 -8.15 10.35 0 16.95 1.90 24.75 7.15 8.20 5.55 13.45 13.85 15.55 24.80 1 5.25 0.90 6.40 -0.55 7.80 l-1.20 1.25 -36.70 0 -36.70 0 -0.30 6 c-0.70 12.30 0.45 24.20 3.20 33.50 3.20 10.70 9 18.50 16.70 22.30 5.15 2.55 8.65 3.30 15 3.30 6.35 0 9.80 -0.75 15.15 -3.40 6.40 -3.10 12.40 -10.15 14.25 -16.65 0.30 -1 0.60 -4.95 0.70 -8.80 0.20 -7.40 0.55 -8.80 2.50 -9.70 2.95 -1.35 6.60 0.15 7.90 3.25 2.50 6.05 -0.95 16.75 -7.60 23.30 -3.30 3.25 -7.75 6.90 -8.40 6.90 -0.20 0 -0.95 0.40 -1.65 0.90 -0.75 0.50 -2.60 1.40 -4.10 2.05 -3.80 1.60 -4.40 1.85 -7 2.55 -1.25 0.30 -2.95 0.80 -3.80 1.05 -1.95 0.60 -15.40 0.50 -17.70 -0.15z m37.40 -69 c0.75 -0.75 0.80 -9.05 0.05 -12.30 -1.50 -6.85 -2.65 -9.80 -5.15 -13.60 -3.10 -4.65 -8.05 -8.20 -14.05 -10.05 -1.15 -0.35 -4.65 -0.60 -8.25 -0.55 -5.05 0 -6.90 0.25 -9.50 1.10 -6.85 2.30 -11.70 5.75 -15.75 11.10 -2.60 3.45 -6.10 10.40 -7 13.90 -0.15 0.70 -0.60 2.40 -0.95 3.75 -0.40 1.40 -0.85 3.55 -1 4.90 l-0.35 2.35 30.65 0 c23.20 0 30.85 -0.15 31.30 -0.60z"/>
  <path d="M766 330.50 c-0.40 -0.25 -1.30 -0.50 -1.95 -0.50 -1.30 0 -4.15 -0.80 -5.65 -1.55 -0.50 -0.25 -1.10 -0.45 -1.40 -0.45 -1 0 -5.30 -2.25 -8.75 -4.55 -13.95 -9.30 -21.25 -25.75 -21.25 -47.95 0 -19.70 6.25 -33.95 19.25 -43.80 2.60 -1.95 9.25 -5.25 12.85 -6.40 10.15 -3.15 22.05 -3.15 31.15 -0.05 14.75 5 24.45 17.65 25.60 33.25 l0.20 3.25 -1.15 1.15 -1.20 1.10 -36.75 0.10 -36.70 0.15 -0.15 10.75 c-0.35 23.15 3.95 37.65 13.85 46.60 5.85 5.30 12.05 7.50 21.10 7.50 5.70 0.05 6.80 -0.15 12.45 -2.25 6.10 -2.25 12.15 -7.75 14.85 -13.45 2.50 -5.25 2.80 -6.60 2.75 -13.85 -0.05 -7.50 0.10 -8 2.95 -9.05 2.40 -0.85 4.30 -0.30 6.30 1.80 l1.65 1.75 0 4.35 c0 3.40 -0.30 5.10 -1.25 7.85 -3.90 10.75 -14.75 19.65 -28.25 23.25 -1.25 0.30 -2.95 0.80 -3.80 1.05 -2 0.60 -15.75 0.55 -16.70 -0.05z m36.85 -69.10 c0.55 -0.90 0.30 -10.15 -0.40 -13.15 -2.85 -12.35 -8.35 -19.25 -17.65 -22.30 -4.25 -1.35 -13.40 -1.50 -17.90 -0.30 -10.45 2.85 -18.45 10.55 -22.75 21.85 -1.40 3.70 -2.95 9.50 -3.35 12.65 l-0.25 1.85 30.95 0 c24.20 0 31.05 -0.15 31.35 -0.60z"/>
  <path d="M440.50 329.40 c-4.85 -1 -8.05 -2 -11.35 -3.45 -1.20 -0.55 -2.25 -0.95 -2.40 -0.95 -0.55 0 -5.90 -3.70 -8.65 -5.95 -13.70 -11.40 -19.75 -37.40 -13.85 -59.80 0.80 -3.20 0.80 -3.20 3.20 -8.40 6.35 -13.90 18.45 -23.15 35.70 -27.30 3.05 -0.70 16.65 -0.70 20.55 0 8.75 1.65 16.10 4.95 20.60 9.20 1.20 1.15 4.35 5.55 4.80 6.75 1.95 4.95 2.35 9.40 1.20 13.25 -1.90 6.20 -8.30 8 -11.35 3.10 -1.05 -1.70 -1.05 -2.40 0.25 -7 1.35 -4.90 1.05 -7.85 -1.35 -12.85 -2.20 -4.55 -7.90 -8.70 -14.60 -10.55 -3.40 -0.95 -16.60 -0.95 -20 0 -11.80 3.25 -19.95 11.70 -24.50 25.30 -4.55 13.50 -4.85 34.65 -0.80 51.50 2.60 11 8.95 19.40 17.70 23.45 5.60 2.55 14.15 3.65 20.60 2.60 8.10 -1.30 12.25 -3.25 17 -8.05 3.90 -3.95 6.35 -8.85 7 -14 0.25 -2.20 0.05 -4 -1.05 -10.55 -0.55 -2.95 2.25 -6.20 5.30 -6.20 3.85 0 6.50 3.70 6.50 9.05 0 3.90 -0.65 6.25 -2.90 10.90 -4.15 8.40 -14.20 16.20 -24.60 19.05 -1.25 0.35 -2.90 0.80 -3.70 1.05 -1.90 0.60 -16.40 0.45 -19.30 -0.15z"/>
  <path d="M653 329.20 c-7.20 -1.40 -12 -3.30 -17.40 -6.85 -11.25 -7.30 -18.10 -18.75 -21.05 -35.15 -0.80 -4.45 -0.70 -17.60 0.15 -20.80 1.80 -6.50 2.95 -9.40 5.45 -13.10 1.30 -2.05 2.10 -3.95 2.45 -6 1.70 -9.70 10.20 -17.60 23.45 -21.70 6.80 -2.15 9.95 -2.60 17.55 -2.60 8.50 0 12.60 0.75 20.10 3.65 4.70 1.80 11.60 6.25 15 9.65 4.35 4.40 9.10 12.25 10.75 17.70 0.35 1.25 0.85 2.80 1.05 3.50 1.35 4.15 1.75 8.45 1.75 18 0 9.80 -0.20 12.05 -1.85 18.25 -1.15 4.45 -1.75 6 -4.40 11.25 -5.80 11.70 -15.65 19.80 -28 23.10 -7.30 1.95 -18.40 2.45 -25 1.10z m19.25 -1.95 c12.35 -2.95 21.60 -13.70 25.15 -29.25 2.10 -9.10 2.95 -21.10 2.15 -30.10 -1.55 -17.20 -5.40 -26.95 -13.70 -34.75 -6.30 -5.90 -13 -8.25 -23.10 -8.25 -8.60 0.05 -13.65 1.60 -19.50 6 -5.25 4 -8.65 10.70 -8.10 16.15 0.15 1.45 0.45 4.15 0.60 5.95 l0.35 3.25 -1.70 1.90 c-2.15 2.45 -4.50 2.90 -7.40 1.40 l-2 -1.05 0 1.25 c0 0.65 0.20 2.30 0.50 3.60 0.25 1.30 0.70 7.65 1 14.10 0.75 16.30 2.05 23.15 6.10 31.55 4.25 8.80 11.10 15.15 18.90 17.45 0.95 0.30 2.45 0.75 3.25 1 2.35 0.75 14.10 0.60 17.50 -0.20z"/>
  <path d="M501 328.25 c0 -0.60 0.80 -0.75 4.40 -0.75 2.40 0 4.85 -0.15 5.50 -0.30 l1.10 -0.30 -0.10 -49.85 -0.15 -49.80 -5.25 -0.25 -5.25 -0.25 -0.15 -0.85 -0.15 -0.90 16.80 0 16.80 0 -0.15 0.90 -0.15 0.85 -5.15 0.15 -5.10 0.15 0.10 22.35 0.15 22.35 27.50 0 27.50 0 0 -22.25 0 -22.25 -5.25 -0.25 c-4.20 -0.20 -5.25 -0.40 -5.25 -1 l0 -0.75 16.65 -0.15 16.60 -0.10 0 1 0 0.95 -5.10 0.15 -5.15 0.15 -0.15 49.45 c-0.05 36.10 0.05 49.60 0.45 50.10 0.40 0.50 1.90 0.70 5.25 0.70 3.85 0 4.70 0.15 4.70 0.75 l0 0.75 -16.80 0 c-13.20 0 -16.75 -0.15 -16.60 -0.60 0.15 -0.45 1.75 -0.70 5 -0.80 3.25 -0.10 5 -0.35 5.35 -0.80 0.40 -0.45 0.50 -8.25 0.45 -26.60 l-0.15 -25.95 -27.60 -0.15 -27.65 -0.10 0 26.50 0 26.50 1.15 0.25 c0.60 0.15 2.95 0.30 5.25 0.35 2.25 0.10 4.15 0.40 4.25 0.65 0.05 0.30 -5.85 0.55 -16.75 0.65 l-16.90 0.10 0 -0.75z"/>
 </g>
 <g fill="#468000">
  <path d="M343.50 329.25 c0 -0.15 0.10 -0.25 0.25 -0.25 0.15 0 0.25 0.10 0.25 0.25 0 0.15 -0.10 0.25 -0.25 0.25 -0.15 0 -0.25 -0.10 -0.25 -0.25z"/>
  <path d="M350.50 329.25 c0 -0.15 0.10 -0.25 0.25 -0.25 0.15 0 0.25 0.10 0.25 0.25 0 0.15 -0.10 0.25 -0.25 0.25 -0.15 0 -0.25 -0.10 -0.25 -0.25z"/>
  <path d="M442 328.75 c0 -0.85 0.40 -0.90 3.15 -0.45 2.65 0.45 2.30 1.20 -0.65 1.20 -1.90 0 -2.50 -0.20 -2.50 -0.75z"/>
  <path d="M455.50 329 c-0.55 -0.35 -0.20 -0.50 1.25 -0.50 1.10 0 2.35 0.25 2.75 0.50 0.55 0.35 0.20 0.50 -1.25 0.50 -1.10 0 -2.35 -0.25 -2.75 -0.50z"/>
  <path d="M657 329 l-0.70 -0.45 0.75 -0.30 c1.45 -0.55 9.60 -0.05 9.85 0.65 0.25 0.75 -8.70 0.85 -9.90 0.10z"/>
  <path d="M772.50 329.25 c0 -0.15 0.10 -0.25 0.25 -0.25 0.15 0 0.25 0.10 0.25 0.25 0 0.15 -0.10 0.25 -0.25 0.25 -0.15 0 -0.25 -0.10 -0.25 -0.25z"/>
  <path d="M779.50 329.25 c0 -0.15 0.10 -0.25 0.25 -0.25 0.15 0 0.25 0.10 0.25 0.25 0 0.15 -0.10 0.25 -0.25 0.25 -0.15 0 -0.25 -0.10 -0.25 -0.25z"/>
  <path d="M438.05 328.20 c0 -0.55 0.15 -0.70 0.30 -0.30 0.15 0.35 0.10 0.80 -0.05 0.95 -0.15 0.20 -0.30 -0.10 -0.25 -0.65z"/>
  <path d="M601.55 328.20 c0 -0.55 0.15 -0.70 0.30 -0.30 0.15 0.35 0.10 0.80 -0.05 0.95 -0.15 0.20 -0.30 -0.10 -0.25 -0.65z"/>
  <path d="M462.65 328.15 c0.20 -0.15 0.50 -0.15 0.70 0 0.15 0.20 0 0.35 -0.35 0.35 -0.35 0 -0.50 -0.15 -0.35 -0.35z"/>
  <path d="M667.50 328.25 c0 -0.15 0.10 -0.25 0.25 -0.25 0.15 0 0.25 0.10 0.25 0.25 0 0.15 -0.10 0.25 -0.25 0.25 -0.15 0 -0.25 -0.10 -0.25 -0.25z"/>
  <path d="M464 326.75 c0 -0.15 0.10 -0.25 0.25 -0.25 0.15 0 0.25 0.10 0.25 0.25 0 0.15 -0.10 0.25 -0.25 0.25 -0.15 0 -0.25 -0.10 -0.25 -0.25z"/>
  <path d="M206.50 325.75 c0 -0.15 0.10 -0.25 0.25 -0.25 0.15 0 0.25 0.10 0.25 0.25 0 0.15 -0.10 0.25 -0.25 0.25 -0.15 0 -0.25 -0.10 -0.25 -0.25z"/>
  <path d="M466.25 325.50 c0.15 -0.25 0.40 -0.50 0.55 -0.50 0.15 0 0.10 0.25 -0.05 0.50 -0.15 0.30 -0.40 0.50 -0.55 0.50 -0.15 0 -0.10 -0.20 0.05 -0.50z"/>
  <path d="M207.50 324.75 c0 -0.15 0.10 -0.25 0.25 -0.25 0.15 0 0.25 0.10 0.25 0.25 0 0.15 -0.10 0.25 -0.25 0.25 -0.15 0 -0.25 -0.10 -0.25 -0.25z"/>
  <path d="M467.50 324.75 c0 -0.15 0.10 -0.25 0.25 -0.25 0.15 0 0.25 0.10 0.25 0.25 0 0.15 -0.10 0.25 -0.25 0.25 -0.15 0 -0.25 -0.10 -0.25 -0.25z"/>
  <path d="M474 323.75 c0 -0.15 0.10 -0.25 0.25 -0.25 0.15 0 0.25 0.10 0.25 0.25 0 0.15 -0.10 0.25 -0.25 0.25 -0.15 0 -0.25 -0.10 -0.25 -0.25z"/>
  <path d="M325 322.25 c0 -0.15 0.10 -0.25 0.25 -0.25 0.15 0 0.25 0.10 0.25 0.25 0 0.15 -0.10 0.25 -0.25 0.25 -0.15 0 -0.25 -0.10 -0.25 -0.25z"/>
  <path d="M378 317.75 c0 -0.15 0.10 -0.25 0.25 -0.25 0.15 0 0.25 0.10 0.25 0.25 0 0.15 -0.10 0.25 -0.25 0.25 -0.15 0 -0.25 -0.10 -0.25 -0.25z"/>
  <path d="M53.50 295.75 c0 -0.15 0.10 -0.25 0.25 -0.25 0.15 0 0.25 0.10 0.25 0.25 0 0.15 -0.10 0.25 -0.25 0.25 -0.15 0 -0.25 -0.10 -0.25 -0.25z"/>
  <path d="M312 263 c-0.50 -0.30 9.65 -0.50 29.15 -0.50 19.80 0 29.80 0.15 29.60 0.50 -0.40 0.65 -57.70 0.65 -58.75 0z"/>
  <path d="M741 263 c-0.50 -0.30 9.65 -0.50 29.15 -0.50 19.80 0 29.80 0.15 29.60 0.50 -0.40 0.65 -57.70 0.65 -58.75 0z"/>
  <path d="M372 262.25 c0 -0.15 0.10 -0.25 0.25 -0.25 0.15 0 0.25 0.10 0.25 0.25 0 0.15 -0.10 0.25 -0.25 0.25 -0.15 0 -0.25 -0.10 -0.25 -0.25z"/>
  <path d="M308.50 239.75 c0 -0.15 0.10 -0.25 0.25 -0.25 0.15 0 0.25 0.10 0.25 0.25 0 0.15 -0.10 0.25 -0.25 0.25 -0.15 0 -0.25 -0.10 -0.25 -0.25z"/>
  <path d="M414.50 239.75 c0 -0.15 0.10 -0.25 0.25 -0.25 0.15 0 0.25 0.10 0.25 0.25 0 0.15 -0.10 0.25 -0.25 0.25 -0.15 0 -0.25 -0.10 -0.25 -0.25z"/>
  <path d="M309.50 238.75 c0 -0.15 0.10 -0.25 0.25 -0.25 0.15 0 0.25 0.10 0.25 0.25 0 0.15 -0.10 0.25 -0.25 0.25 -0.15 0 -0.25 -0.10 -0.25 -0.25z"/>
  <path d="M415.50 238.75 c0 -0.15 0.10 -0.25 0.25 -0.25 0.15 0 0.25 0.10 0.25 0.25 0 0.15 -0.10 0.25 -0.25 0.25 -0.15 0 -0.25 -0.10 -0.25 -0.25z"/>
  <path d="M738.50 238.75 c0 -0.15 0.10 -0.25 0.25 -0.25 0.15 0 0.25 0.10 0.25 0.25 0 0.15 -0.10 0.25 -0.25 0.25 -0.15 0 -0.25 -0.10 -0.25 -0.25z"/>
  <path d="M310.50 237.75 c0 -0.15 0.10 -0.25 0.25 -0.25 0.15 0 0.25 0.10 0.25 0.25 0 0.15 -0.10 0.25 -0.25 0.25 -0.15 0 -0.25 -0.10 -0.25 -0.25z"/>
  <path d="M416.50 237.75 c0 -0.15 0.10 -0.25 0.25 -0.25 0.15 0 0.25 0.10 0.25 0.25 0 0.15 -0.10 0.25 -0.25 0.25 -0.15 0 -0.25 -0.10 -0.25 -0.25z"/>
  <path d="M739.50 237.75 c0 -0.15 0.10 -0.25 0.25 -0.25 0.15 0 0.25 0.10 0.25 0.25 0 0.15 -0.10 0.25 -0.25 0.25 -0.15 0 -0.25 -0.10 -0.25 -0.25z"/>
  <path d="M311.50 236.75 c0 -0.15 0.10 -0.25 0.25 -0.25 0.15 0 0.25 0.10 0.25 0.25 0 0.15 -0.10 0.25 -0.25 0.25 -0.15 0 -0.25 -0.10 -0.25 -0.25z"/>
  <path d="M417.50 236.75 c0 -0.15 0.10 -0.25 0.25 -0.25 0.15 0 0.25 0.10 0.25 0.25 0 0.15 -0.10 0.25 -0.25 0.25 -0.15 0 -0.25 -0.10 -0.25 -0.25z"/>
  <path d="M627.50 236.75 c0 -0.15 0.10 -0.25 0.25 -0.25 0.15 0 0.25 0.10 0.25 0.25 0 0.15 -0.10 0.25 -0.25 0.25 -0.15 0 -0.25 -0.10 -0.25 -0.25z"/>
  <path d="M740.50 236.75 c0 -0.15 0.10 -0.25 0.25 -0.25 0.15 0 0.25 0.10 0.25 0.25 0 0.15 -0.10 0.25 -0.25 0.25 -0.15 0 -0.25 -0.10 -0.25 -0.25z"/>
  <path d="M312.50 235.75 c0 -0.15 0.10 -0.25 0.25 -0.25 0.15 0 0.25 0.10 0.25 0.25 0 0.15 -0.10 0.25 -0.25 0.25 -0.15 0 -0.25 -0.10 -0.25 -0.25z"/>
  <path d="M418.50 235.75 c0 -0.15 0.10 -0.25 0.25 -0.25 0.15 0 0.25 0.10 0.25 0.25 0 0.15 -0.10 0.25 -0.25 0.25 -0.15 0 -0.25 -0.10 -0.25 -0.25z"/>
  <path d="M628.50 235.75 c0 -0.15 0.10 -0.25 0.25 -0.25 0.15 0 0.25 0.10 0.25 0.25 0 0.15 -0.10 0.25 -0.25 0.25 -0.15 0 -0.25 -0.10 -0.25 -0.25z"/>
  <path d="M741.50 235.75 c0 -0.15 0.10 -0.25 0.25 -0.25 0.15 0 0.25 0.10 0.25 0.25 0 0.15 -0.10 0.25 -0.25 0.25 -0.15 0 -0.25 -0.10 -0.25 -0.25z"/>
  <path d="M313.50 234.75 c0 -0.15 0.10 -0.25 0.25 -0.25 0.15 0 0.25 0.10 0.25 0.25 0 0.15 -0.10 0.25 -0.25 0.25 -0.15 0 -0.25 -0.10 -0.25 -0.25z"/>
  <path d="M419.50 234.75 c0 -0.15 0.10 -0.25 0.25 -0.25 0.15 0 0.25 0.10 0.25 0.25 0 0.15 -0.10 0.25 -0.25 0.25 -0.15 0 -0.25 -0.10 -0.25 -0.25z"/>
  <path d="M629.50 234.75 c0 -0.15 0.10 -0.25 0.25 -0.25 0.15 0 0.25 0.10 0.25 0.25 0 0.15 -0.10 0.25 -0.25 0.25 -0.15 0 -0.25 -0.10 -0.25 -0.25z"/>
  <path d="M742.50 234.75 c0 -0.15 0.10 -0.25 0.25 -0.25 0.15 0 0.25 0.10 0.25 0.25 0 0.15 -0.10 0.25 -0.25 0.25 -0.15 0 -0.25 -0.10 -0.25 -0.25z"/>
  <path d="M314.50 233.75 c0 -0.15 0.10 -0.25 0.25 -0.25 0.15 0 0.25 0.10 0.25 0.25 0 0.15 -0.10 0.25 -0.25 0.25 -0.15 0 -0.25 -0.10 -0.25 -0.25z"/>
  <path d="M630.50 233.75 c0 -0.15 0.10 -0.25 0.25 -0.25 0.15 0 0.25 0.10 0.25 0.25 0 0.15 -0.10 0.25 -0.25 0.25 -0.15 0 -0.25 -0.10 -0.25 -0.25z"/>
  <path d="M743.50 233.75 c0 -0.15 0.10 -0.25 0.25 -0.25 0.15 0 0.25 0.10 0.25 0.25 0 0.15 -0.10 0.25 -0.25 0.25 -0.15 0 -0.25 -0.10 -0.25 -0.25z"/>
  <path d="M501 226 c0 -0.30 2 -0.50 5 -0.50 3 0 5 0.20 5 0.50 0 0.30 -2 0.50 -5 0.50 -3 0 -5 -0.20 -5 -0.50z"/>
  <path d="M524.30 225.70 l-0.30 -0.85 2.30 0.35 c1.30 0.15 3.65 0.30 5.25 0.30 1.65 0 2.95 0.20 2.95 0.50 0 0.30 -2 0.50 -4.95 0.50 -4.10 0 -5 -0.15 -5.25 -0.80z"/>
  <path d="M568.50 226 c0 -0.30 1.90 -0.50 4.75 -0.50 2.85 0 4.75 0.20 4.75 0.50 0 0.30 -1.90 0.50 -4.75 0.50 -2.85 0 -4.75 -0.20 -4.75 -0.50z"/>
  <path d="M592.50 226 c0 -0.30 1.90 -0.50 4.75 -0.50 2.85 0 4.75 0.20 4.75 0.50 0 0.30 -1.90 0.50 -4.75 0.50 -2.85 0 -4.75 -0.20 -4.75 -0.50z"/>
  <path d="M591 225.25 c0 -0.15 0.10 -0.25 0.25 -0.25 0.15 0 0.25 0.10 0.25 0.25 0 0.15 -0.10 0.25 -0.25 0.25 -0.15 0 -0.25 -0.10 -0.25 -0.25z"/>
  <path d="M340.70 224.15 l-0.55 -0.90 1.35 0 c1.20 0 1.35 0.15 0.95 0.90 -0.25 0.45 -0.65 0.85 -0.85 0.85 -0.20 0 -0.60 -0.40 -0.90 -0.85z"/>
  <path d="M343.50 224.75 c0 -0.15 0.10 -0.25 0.25 -0.25 0.15 0 0.25 0.10 0.25 0.25 0 0.15 -0.10 0.25 -0.25 0.25 -0.15 0 -0.25 -0.10 -0.25 -0.25z"/>
  <path d="M351.50 224.75 c0 -0.15 0.10 -0.25 0.25 -0.25 0.15 0 0.25 0.10 0.25 0.25 0 0.15 -0.10 0.25 -0.25 0.25 -0.15 0 -0.25 -0.10 -0.25 -0.25z"/>
  <path d="M444.80 224.25 c-0.20 -0.60 0.15 -0.75 1.70 -0.75 2 0 2.65 0.65 1.20 1.20 -1.35 0.50 -2.60 0.35 -2.90 -0.45z"/>
  <path d="M458.65 224.65 c-1.55 -0.15 -2.15 -0.45 -2.15 -1 0 -0.50 0.30 -0.65 0.80 -0.45 0.45 0.15 1.30 0.30 1.95 0.30 0.60 0 1.25 0.35 1.45 0.75 0.15 0.40 0.20 0.70 0.15 0.65 -0.05 -0.05 -1.05 -0.15 -2.20 -0.25z"/>
  <path d="M656.70 224.15 l-0.55 -0.90 2.35 0 2.40 0 -0.45 0.90 c-0.30 0.50 -1.05 0.85 -1.85 0.85 -0.75 0 -1.60 -0.40 -1.90 -0.85z"/>
  <path d="M667.90 224.65 c-0.85 -0.20 -1.65 -1.65 -0.90 -1.65 0.45 0 2 1.40 2 1.80 0 0.10 -0.05 0.15 -0.10 0.15 -0.10 -0.05 -0.50 -0.15 -1 -0.30z"/>
  <path d="M769.70 224.15 l-0.55 -0.90 1.35 0 c1.20 0 1.35 0.15 0.95 0.90 -0.25 0.45 -0.65 0.85 -0.85 0.85 -0.20 0 -0.60 -0.40 -0.90 -0.85z"/>
  <path d="M772.50 224.75 c0 -0.15 0.10 -0.25 0.25 -0.25 0.15 0 0.25 0.10 0.25 0.25 0 0.15 -0.10 0.25 -0.25 0.25 -0.15 0 -0.25 -0.10 -0.25 -0.25z"/>
  <path d="M777.35 224.15 c0.30 -0.70 2.65 -0.90 2.65 -0.20 0 0.25 -0.65 0.55 -1.45 0.65 -1.05 0.15 -1.40 0.05 -1.20 -0.45z"/>
  <path d="M780.50 224.75 c0 -0.15 0.10 -0.25 0.25 -0.25 0.15 0 0.25 0.10 0.25 0.25 0 0.15 -0.10 0.25 -0.25 0.25 -0.15 0 -0.25 -0.10 -0.25 -0.25z"/>
  <path d="M349 224 c0 -0.25 0.45 -0.50 1 -0.50 0.55 0 1 0.25 1 0.50 0 0.30 -0.45 0.50 -1 0.50 -0.55 0 -1 -0.20 -1 -0.50z"/>
  <path d="M449 223.25 c0 -0.15 0.10 -0.25 0.25 -0.25 0.15 0 0.25 0.10 0.25 0.25 0 0.15 -0.10 0.25 -0.25 0.25 -0.15 0 -0.25 -0.10 -0.25 -0.25z"/>
 </g>
</svg>